<svg width="24" height="24" viewBox="0 0 24 24" fill="none" xmlns="http://www.w3.org/2000/svg">
<g clip-path="url(#clip0)">
<path d="M21.1033 19.0994C21.0328 19.0536 20.5018 18.6816 19.9702 17.5564C18.9938 15.49 18.7889 12.5792 18.7889 10.5012C18.7889 10.4921 18.7887 10.4832 18.7884 10.4742C18.7777 7.72781 17.1332 5.36034 14.7799 4.29811V2.67356C14.7799 1.19934 13.5825 0 12.1107 0H11.8895C10.4178 0 9.22038 1.19934 9.22038 2.67356V4.29802C6.85919 5.36367 5.21139 7.74323 5.21139 10.5012C5.21139 12.5792 5.00645 15.49 4.03009 17.5564C3.49849 18.6816 2.96753 19.0535 2.89694 19.0994C2.59966 19.2369 2.45308 19.5548 2.52147 19.8768C2.59052 20.2021 2.89455 20.4263 3.22656 20.4263H8.38033C8.40911 22.4017 10.0213 24 12.0002 24C13.979 24 15.5912 22.4017 15.62 20.4263H20.7738C21.1057 20.4263 21.4098 20.2021 21.4788 19.8768C21.5471 19.5548 21.4006 19.2369 21.1033 19.0994ZM10.6267 2.67356C10.6267 1.97602 11.1932 1.40855 11.8896 1.40855H12.1108C12.8072 1.40855 13.3737 1.97602 13.3737 2.67356V3.84155C12.9299 3.74981 12.4705 3.70153 12 3.70153C11.5296 3.70153 11.0703 3.74977 10.6267 3.84141V2.67356H10.6267ZM12.0002 22.5915C10.7967 22.5915 9.81513 21.625 9.78658 20.4264H14.2137C14.1852 21.625 13.2036 22.5915 12.0002 22.5915ZM14.8314 19.0177C14.8313 19.0177 4.82899 19.0177 4.82899 19.0177C4.95063 18.8282 5.07442 18.6135 5.19747 18.371C6.13984 16.5127 6.61769 13.8649 6.61769 10.5012C6.61769 7.5285 9.03217 5.11008 11.9999 5.11008C14.9677 5.11008 17.3822 7.5285 17.3822 10.5035C17.3822 10.5122 17.3823 10.5208 17.3826 10.5294C17.3853 13.8797 17.8631 16.518 18.8028 18.371C18.9259 18.6136 19.0497 18.8282 19.1713 19.0177H14.8314Z" fill="#888888"/>
</g>
<defs>
<clipPath id="clip0">
<rect width="24" height="24" fill="white"/>
</clipPath>
</defs>
</svg>

