<svg width="24" height="24" viewBox="0 0 24 24" fill="none" xmlns="http://www.w3.org/2000/svg">
<g clip-path="url(#clip0)">
<path d="M22.1538 2.06152H1.84617C0.811078 2.06152 0 2.8726 0 3.9077V20.0923C0 21.1274 0.811078 21.9385 1.84617 21.9385H22.1539C23.189 21.9385 24 21.1274 24 20.0923V3.9077C24 2.8726 23.1889 2.06152 22.1538 2.06152ZM22.1538 20.0923H1.84617L1.83202 3.90891C1.83202 3.90891 1.83633 3.9077 1.84617 3.9077H22.1539V20.0923H22.1538Z" fill="#888888"/>
<path d="M9.17165 7.93388C8.86026 7.55757 8.30887 7.48988 7.91441 7.7791L0.375977 13.3175L1.4692 14.8055L8.3061 9.78248L18.0276 21.512L19.4486 20.3338L9.17165 7.93388Z" fill="#888888"/>
<path d="M18.0498 8.75321C17.7135 8.48706 17.2384 8.48799 16.9024 8.75476L12.5332 12.2316L13.6827 13.6762L17.479 10.6553L22.5045 14.6316L23.6498 13.1839L18.0498 8.75321Z" fill="#888888"/>
</g>
<defs>
<clipPath id="clip0">
<rect width="24" height="24" fill="white"/>
</clipPath>
</defs>
</svg>
