<svg width="24" height="24" viewBox="0 0 24 24" fill="none" xmlns="http://www.w3.org/2000/svg">
<g clip-path="url(#clip0)">
<path d="M22.3528 1.64745C20.1561 -0.549304 16.5946 -0.549304 14.3979 1.6474L9.69658 6.34868C7.42431 8.62104 7.63469 12.2417 9.69658 14.3036C10.0419 14.6489 10.4239 14.9305 10.8273 15.1617L11.6853 14.3036C12.2481 13.7408 12.05 13.0828 12.0399 12.608C11.9164 12.5204 11.7962 12.4258 11.6853 12.3149C10.6272 11.2569 10.5797 9.44309 11.6853 8.3374C11.8495 8.1732 16.2869 3.73587 16.3865 3.63621C17.4834 2.53938 19.2672 2.53938 20.364 3.63621C21.4608 4.73304 21.4608 6.51687 20.364 7.6137L17.2565 10.7212C17.3464 11.2184 17.8857 12.3962 17.6083 14.339C17.6218 14.3257 17.638 14.3172 17.6515 14.3037L22.3528 9.60242C24.5495 7.40567 24.5495 3.8442 22.3528 1.64745Z" fill="#888888"/>
<path d="M14.669 9.33205C14.3238 8.98676 13.9417 8.70523 13.5384 8.474L12.6803 9.33205C12.1174 9.89483 12.3155 10.5528 12.3257 11.0276C12.4493 11.1152 12.5694 11.2098 12.6803 11.3207C13.7384 12.3788 13.786 14.1925 12.6803 15.2982C12.5157 15.4628 7.71086 20.2677 7.61472 20.3638C6.51789 21.4606 4.73406 21.4606 3.63723 20.3638C2.54041 19.267 2.54041 17.4831 3.63723 16.3863L7.10913 12.9144C7.01927 12.4172 6.47992 11.2394 6.75737 9.29656C6.74383 9.30987 6.72752 9.31855 6.71402 9.332L1.64847 14.3976C-0.548187 16.5944 -0.548187 20.1559 1.64847 22.3526C3.84522 24.5493 7.40664 24.5493 9.60339 22.3526L14.669 17.287C16.8991 15.0569 16.7772 11.4402 14.669 9.33205Z" fill="#888888"/>
</g>
<defs>
<clipPath id="clip0">
<rect width="24" height="24" fill="white"/>
</clipPath>
</defs>
</svg>
